# xmcd
#
# Track frame offsets:
# 150
# 14075
# 27525
# 43050
# 58000
# 73975
# 88787
# 102800
# 118700
# 132800
# 149300
# 165750
# 179475
# 209737
#
# Disc length: 2956 seconds
#
# Revision: 1
# Processed by: cddbd v1.4PL0 Copyright (c) Steve Scherf et al.
# Submitted via: CedeCatalogueitor 2.5 http://usuarios.lycos.es/kakasboy
#
DISCID=d20b8a0e
DTITLE=Rtreter - Tert
DYEAR=1900
DGENRE=
TTITLE0=Iuygyug
TTITLE1=Mbnm
TTITLE2=Mbnmb
TTITLE3=Fsdfsdfsdf
TTITLE4=Fasfasfsa
TTITLE5=Fasfasfsafasfsa
TTITLE6=Fasfasfsafas
TTITLE7=Dfsafafsafsa
TTITLE8=Fasfsafasfsa
TTITLE9=Fasfasfasfasf
TTITLE10=Fafsafasfa
TTITLE11=Fasfsafas
TTITLE12=Fafsaf
TTITLE13=Fasfasfasfas
EXTD=
EXTT0=
EXTT1=
EXTT2=
EXTT3=
EXTT4=
EXTT5=
EXTT6=
EXTT7=
EXTT8=
EXTT9=
EXTT10=
EXTT11=
EXTT12=
EXTT13=
PLAYORDER=
